<svg width="49" height="37" viewBox="0 0 49 37" fill="none" xmlns="http://www.w3.org/2000/svg">
<path d="M49.7747 34.8587C49.7747 36.4958 48.4536 37.8205 46.8154 37.8205H0.980835V5.27309C0.980835 0.833069 0.980835 0.833069 0.980835 0.833069H49.7747V34.8587Z" fill="#222222"/>
<path d="M20.8556 22.4563C23.7377 22.4563 26.0741 20.1189 26.0741 17.2355C26.0741 14.3522 23.7377 12.0148 20.8556 12.0148C17.9735 12.0148 15.6371 14.3522 15.6371 17.2355C15.6371 20.1189 17.9735 22.4563 20.8556 22.4563Z" fill="#FF5E55" stroke="#E0443E" stroke-width="0.37037"/>
<path d="M38.2489 22.4563C41.131 22.4563 43.4674 20.1189 43.4674 17.2355C43.4674 14.3522 41.131 12.0148 38.2489 12.0148C35.3668 12.0148 33.0304 14.3522 33.0304 17.2355C33.0304 20.1189 35.3668 22.4563 38.2489 22.4563Z" fill="#FFC02C" stroke="#DEA123" stroke-width="0.37037"/>
</svg>
